<svg width="22" height="23" viewBox="0 0 22 23" fill="none" xmlns="http://www.w3.org/2000/svg">
<path d="M9.10563 23V17.08C7.59096 17.0587 6.25763 16.8347 5.10563 16.408C3.97496 15.9813 3.03629 15.3733 2.28963 14.584C1.54296 13.7733 0.977625 12.8027 0.593625 11.672C0.230958 10.52 0.0496252 9.21867 0.0496252 7.768V0.151999H3.98563V7.928C3.98563 9.4 4.18829 10.5627 4.59363 11.416C5.02029 12.248 5.61763 12.8453 6.38563 13.208C7.17496 13.5493 8.08163 13.72 9.10563 13.72V0.151999H12.8816V13.72C13.8416 13.72 14.7056 13.5493 15.4736 13.208C16.2416 12.8667 16.8496 12.28 17.2976 11.448C17.7456 10.5947 17.9696 9.44267 17.9696 7.992V0.151999H21.9056V7.736C21.9056 9.69867 21.5643 11.3733 20.8816 12.76C20.2203 14.1467 19.2176 15.2133 17.8736 15.96C16.5296 16.6853 14.8656 17.0587 12.8816 17.08V23H9.10563Z" fill="#753A9C"/>
</svg>
